<svg width="428" height="501" viewBox="0 0 428 501" fill="none" xmlns="http://www.w3.org/2000/svg">
<rect width="428" height="501" rx="40" fill="#12AFF2"/>
<path d="M254.907 256.309C253.846 257.308 252.88 258.405 252.022 259.584C250.599 255.03 247.59 251.135 243.54 248.606C239.49 246.077 234.667 245.081 229.945 245.799C225.224 246.517 220.916 248.901 217.802 252.52C214.689 256.138 212.975 260.751 212.973 265.522C212.973 265.674 212.997 265.826 212.997 265.981C213.026 267.356 213.202 268.723 213.521 270.061H177.289C177.609 268.723 177.785 267.356 177.814 265.981C177.814 265.826 177.837 265.674 177.837 265.522C177.839 261.562 176.661 257.691 174.453 254.403C172.245 251.114 169.108 248.556 165.44 247.055C161.772 245.554 157.74 245.178 153.857 245.974C149.975 246.77 146.417 248.703 143.638 251.527C143.638 251.527 142.043 249.967 140.49 249.312C143.746 245.82 147.979 243.389 152.637 242.335C157.295 241.28 162.163 241.652 166.607 243.401C171.051 245.151 174.865 248.197 177.551 252.142C180.238 256.088 181.673 260.75 181.669 265.522C181.669 265.674 181.669 265.826 181.669 265.981H209.173C209.173 265.826 209.173 265.674 209.173 265.522C209.173 260.031 211.075 254.71 214.556 250.461C218.038 246.212 222.884 243.297 228.271 242.212C233.659 241.127 239.257 241.938 244.114 244.508C248.971 247.077 252.788 251.247 254.918 256.309H254.907Z" fill="white"/>
<path d="M195.41 207.821C211.672 207.821 225.177 219.874 227.43 235.524H231.283C229.004 217.77 213.791 204 195.41 204C177.029 204 161.819 217.77 159.551 235.524H163.406C165.646 219.882 179.143 207.821 195.41 207.821Z" fill="white"/>
<path d="M103.508 282.534C107.576 282.532 111.481 280.934 114.38 278.082C117.28 275.231 118.941 271.355 119.007 267.291V235.086H115.072V256.752C113.352 254.822 111.175 253.353 108.741 252.479C106.306 251.604 103.692 251.353 101.135 251.747C98.5787 252.141 96.1615 253.168 94.1041 254.735C92.0467 256.301 90.4144 258.357 89.3562 260.716C88.298 263.074 87.8474 265.659 88.0455 268.236C88.2437 270.813 89.0843 273.299 90.4907 275.468C91.8971 277.637 93.8245 279.42 96.0973 280.654C98.3701 281.888 100.916 282.535 103.503 282.534H103.508ZM103.508 255.507C105.79 255.507 108.021 256.183 109.918 257.449C111.816 258.716 113.295 260.515 114.169 262.621C115.043 264.728 115.272 267.045 114.828 269.281C114.384 271.518 113.286 273.572 111.673 275.185C110.06 276.798 108.005 277.897 105.768 278.343C103.53 278.79 101.21 278.563 99.1007 277.693C96.9917 276.822 95.1884 275.346 93.9188 273.452C92.6491 271.558 91.97 269.33 91.9674 267.05C91.9702 263.992 93.1866 261.059 95.3499 258.895C97.5132 256.732 100.447 255.513 103.508 255.507Z" fill="white"/>
<path d="M142.193 253.539V253.565C142.196 253.885 142.127 254.201 141.99 254.49C141.854 254.779 141.654 255.033 141.406 255.234C141.168 255.441 140.884 255.588 140.578 255.664C140.272 255.74 139.953 255.743 139.646 255.672C139.449 255.627 139.074 255.635 138.859 255.599C135.599 255.075 133.133 256.403 131.633 257.606C129.186 259.587 127.552 262.684 127.4 265.693V278.999L126.917 279.033H123.159L123.122 278.551V265.263C123.122 257.509 129.338 251.191 136.976 251.173C138.168 251.15 139.36 251.256 140.53 251.487C141.807 251.781 142.164 252.53 142.193 253.539Z" fill="white"/>
<path d="M157.859 281.009C154.792 281.009 151.795 280.101 149.245 278.4C146.695 276.698 144.707 274.279 143.533 271.448C142.359 268.618 142.052 265.503 142.65 262.498C143.249 259.494 144.725 256.733 146.894 254.567C149.062 252.401 151.825 250.925 154.832 250.328C157.84 249.73 160.958 250.037 163.791 251.21C166.624 252.383 169.045 254.368 170.748 256.916C172.452 259.463 173.361 262.458 173.36 265.522C173.356 269.628 171.721 273.565 168.815 276.468C165.909 279.372 161.969 281.005 157.859 281.009ZM157.859 253.982C155.576 253.982 153.345 254.658 151.447 255.925C149.55 257.192 148.07 258.993 147.197 261.099C146.323 263.206 146.095 265.525 146.54 267.761C146.985 269.998 148.085 272.052 149.699 273.665C151.313 275.277 153.369 276.375 155.608 276.82C157.846 277.265 160.167 277.037 162.275 276.164C164.384 275.291 166.187 273.813 167.455 271.917C168.723 270.021 169.4 267.792 169.4 265.512C169.393 262.456 168.175 259.527 166.013 257.366C163.85 255.205 160.918 253.988 157.859 253.982Z" fill="white"/>
<path d="M232.962 281.009C229.896 281.009 226.898 280.1 224.348 278.398C221.799 276.696 219.812 274.277 218.638 271.446C217.465 268.616 217.158 265.502 217.756 262.497C218.355 259.492 219.832 256.732 222 254.566C224.169 252.4 226.931 250.925 229.939 250.328C232.947 249.73 236.064 250.037 238.897 251.21C241.73 252.383 244.151 254.369 245.854 256.916C247.557 259.464 248.466 262.459 248.466 265.522C248.462 269.629 246.827 273.566 243.92 276.469C241.013 279.373 237.072 281.005 232.962 281.009ZM232.962 253.982C230.679 253.982 228.448 254.658 226.55 255.925C224.653 257.192 223.173 258.993 222.3 261.099C221.426 263.206 221.198 265.525 221.643 267.761C222.088 269.998 223.188 272.052 224.802 273.665C226.416 275.277 228.472 276.375 230.711 276.82C232.949 277.265 235.27 277.037 237.378 276.164C239.487 275.291 241.29 273.813 242.558 271.917C243.826 270.021 244.503 267.792 244.503 265.512C244.497 262.456 243.279 259.526 241.116 257.365C238.953 255.204 236.021 253.987 232.962 253.982Z" fill="white"/>
<path d="M221.395 266.279H217.461V297.483H221.395V266.279Z" fill="white"/>
<path d="M305.23 269.361V282.534H301.28V269.361C301.28 266.581 300.174 263.915 298.207 261.949C296.239 259.984 293.571 258.879 290.788 258.879C288.006 258.879 285.337 259.984 283.37 261.949C281.402 263.915 280.297 266.581 280.297 269.361V282.534H276.155V269.361C276.155 266.581 275.05 263.915 273.082 261.949C271.115 259.984 268.446 258.879 265.664 258.879C262.881 258.879 260.213 259.984 258.245 261.949C256.278 263.915 255.172 266.581 255.172 269.361V282.534H251.235V269.361C251.234 266.174 252.29 263.077 254.238 260.554C256.186 258.03 258.916 256.223 262.001 255.414C265.086 254.606 268.353 254.841 271.29 256.085C274.227 257.328 276.668 259.509 278.233 262.286C279.797 259.509 282.239 257.328 285.176 256.085C288.112 254.841 291.379 254.606 294.464 255.414C297.549 256.223 300.28 258.03 302.227 260.554C304.175 263.077 305.231 266.174 305.23 269.361Z" fill="white"/>
<path d="M335.896 271.153C335.64 274.025 334.318 276.696 332.19 278.644C330.062 280.591 327.283 281.673 324.398 281.677C321.925 281.678 319.52 280.878 317.541 279.397L335.115 265.863L338.343 263.384C336.703 259.997 333.885 257.321 330.415 255.858C326.945 254.395 323.061 254.243 319.487 255.431C315.914 256.62 312.895 259.067 310.995 262.316C309.096 265.565 308.444 269.394 309.163 273.088C309.882 276.781 311.922 280.087 314.903 282.388C317.883 284.689 321.599 285.828 325.358 285.592C329.117 285.356 332.661 283.761 335.329 281.105C337.997 278.449 339.607 274.913 339.857 271.159L335.896 271.153ZM312.844 270.129C312.841 267.739 313.583 265.407 314.965 263.456C316.347 261.505 318.302 260.031 320.559 259.239C322.816 258.447 325.264 258.375 327.564 259.033C329.864 259.692 331.902 261.048 333.397 262.915L315.126 276.979C313.645 275.001 312.845 272.598 312.844 270.129Z" fill="white"/>
</svg>
